<svg width="23" height="25" viewBox="0 0 23 25" fill="none" xmlns="http://www.w3.org/2000/svg">
<path d="M18.4435 6.05178C19.1918 6.05178 19.7984 5.40556 19.7984 4.60841C19.7984 3.81126 19.1918 3.16504 18.4435 3.16504C17.6953 3.16504 17.0887 3.81126 17.0887 4.60841C17.0887 5.40556 17.6953 6.05178 18.4435 6.05178Z" fill="#E7E8EC"/>
<path d="M11.5 18.8617C14.7736 18.8617 17.4274 16.0345 17.4274 12.547C17.4274 9.05942 14.7736 6.23221 11.5 6.23221C8.2264 6.23221 5.5726 9.05942 5.5726 12.547C5.5726 16.0345 8.2264 18.8617 11.5 18.8617Z" stroke="#E7E8EC" stroke-width="2" stroke-miterlimit="10"/>
<path d="M19.9677 23.3722H3.03226C1.91452 23.3722 1 22.398 1 21.2072V3.16506C1 1.97428 1.91452 1 3.03226 1H19.9677C21.0855 1 22 1.97428 22 3.16506V21.2072C22 22.398 21.0855 23.3722 19.9677 23.3722Z" stroke="#E7E8EC" stroke-width="2" stroke-miterlimit="10"/>
</svg>
