<svg width="23" height="25" viewBox="0 0 23 25" fill="none" xmlns="http://www.w3.org/2000/svg">
<path d="M19.9677 23.3722H3.03226C1.91452 23.3722 1 22.398 1 21.2072V3.16506C1 1.97428 1.91452 1 3.03226 1H19.9677C21.0855 1 22 1.97428 22 3.16506V21.2072C22 22.398 21.0855 23.3722 19.9677 23.3722Z" stroke="#E7E8EC" stroke-width="2" stroke-miterlimit="10"/>
<path d="M19.629 10.5623C18.7823 9.11893 17.4274 8.39725 15.2258 8.93851C13.0242 9.47978 12.5161 12.5469 12.5161 13.2686C12.5161 13.9903 12.6855 17.7792 16.2419 17.9596C19.7984 18.14 19.4597 17.0575 19.4597 17.0575V15.2533C19.4597 15.2533 17.5968 16.3358 15.5645 15.2533C15.5645 15.2533 14.8871 14.712 14.8871 13.9903H19.7984C19.7984 13.9903 20.4758 12.0057 19.629 10.5623ZM14.8871 12.1861C15.2258 10.7427 16.0726 10.5623 16.9194 10.7427C17.7492 10.9195 17.9355 12.1861 17.9355 12.1861H14.8871Z" fill="#E7E8EC"/>
<path d="M11.3306 13.0882C10.9919 12.0057 9.97581 11.4644 9.97581 11.4644C10.1452 11.284 10.4839 10.7427 10.4839 10.7427C11.3306 9.47978 10.9919 8.21683 10.1452 7.1343C9.29839 6.05177 7.26613 6.05177 7.26613 6.05177H3.37097V17.7792C3.37097 17.7792 6.92742 17.7792 8.1129 17.5987C9.29839 17.4183 9.80645 17.0575 10.3145 16.6966C10.8226 16.3358 11.3306 15.2533 11.3306 15.2533C11.3306 15.2533 11.6694 14.1707 11.3306 13.0882ZM8.95968 14.5316C8.79032 15.4337 7.94355 15.6141 7.60484 15.6141C7.26613 15.6141 5.57258 15.6141 5.57258 15.6141V12.7274C5.57258 12.7274 6.58871 12.7274 7.60484 12.7274C8.62097 12.7274 9.12903 13.6295 8.95968 14.5316ZM8.95968 9.84062C8.79032 10.7427 7.94355 10.9231 7.60484 10.9231C7.26613 10.9231 5.57258 10.9231 5.57258 10.9231V8.03641C5.57258 8.03641 6.58871 8.03641 7.60484 8.03641C8.62097 8.03641 9.12903 8.93851 8.95968 9.84062Z" fill="#E7E8EC"/>
</svg>
