<svg xmlns="http://www.w3.org/2000/svg" viewBox="0 0 382.28 351.03">
<path fill="#e7e8ec" d="M382.28,223.78c-1,4-1.5,8.18-3.14,11.88-5.9,13.4-17,18.89-31.08,19.44-1.25.05-2.5.06-3.74.06q-121.45,0-242.89,0c-8.14,0-16.29-.48-23.36-5.3-9-6.14-14.55-14.52-14.58-25.58q-.18-96.55,0-193.12C63.49,14.21,76.83,1,94.21.06c.87,0,1.74,0,2.62,0Q222.38,0,348,.16a41,41,0,0,1,16.58,3.62c10.08,4.67,15.52,13.3,17,24.35.14,1.11.48,2.19.73,3.28Zm-17-46.74.93-.34c.12-1.66.36-3.33.36-5q0-35.91,0-71.84c0-22.32-.05-44.65,0-67,0-6.06-1.83-11.4-7.12-14.34a24.27,24.27,0,0,0-11.3-2.8q-125.71-.23-251.44-.11l-3,0a14.6,14.6,0,0,0-11.41,5.52c-3.27,3.84-4,8.48-4,13.32q0,86.23,0,172.49c0,1.4.28,2.8.51,5.1,1.88-1.71,3.08-2.73,4.19-3.84q29-29,58-57.92c10.11-10.05,24.8-10.05,34.76-.15,6.28,6.24,12.51,12.53,18.8,18.77,3,3,3.78,3,6.5-.31,11.58-13.89,23.1-27.82,34.71-41.68,8.81-10.52,17.62-21,26.62-31.37,4-4.56,9.33-6.25,15.36-6.59,9.41-.52,15.78,4.44,21.41,11q27.85,32.51,55.7,65.05C358.33,169.08,361.82,173.05,365.29,177ZM222.76,239.53q63.24,0,126.49,0c10.84,0,17.21-6.43,17.33-17.22.05-4.24-.31-8.52.09-12.72.54-5.57-1.67-9.67-5.2-13.76q-37.55-43.44-74.82-87.11c-5.21-6.09-10.75-6.18-15.92,0q-31.65,37.92-63.24,75.87c-6.56,7.89-10.08,8.12-17.28.93-8-8-16-16.1-24.12-24-4.88-4.77-9.78-4.77-14.42-.14Q117.89,195,84.19,228.82c-3,3-3.08,5.48.83,7.36A30.22,30.22,0,0,0,97.4,239.4C139.18,239.63,181,239.54,222.76,239.53Z"/>
<path fill="#e7e8ec" d="M277.48,351q-71.43-18.79-142.85-37.62Q79.83,298.9,25.12,284.13c-12.17-3.27-21.3-10.38-24.2-23a39.93,39.93,0,0,1,.23-18c7.43-29.38,15.5-58.59,23.35-87.86,2.1-7.82,4.19-15.66,6.36-23.47a20.81,20.81,0,0,1,2-5.19c1.76-2.91,4.65-3.75,7.81-3a6.37,6.37,0,0,1,5.28,6,21.49,21.49,0,0,1-.74,6.62q-14,52.61-28.16,105.16c-.55,2.05-1.08,4.11-1.56,6.17-2.52,10.8,2.13,18.7,12.9,21.66s21.68,5.83,32.52,8.73l187.56,50.22c7.83,2.09,15.65,4.24,23.5,6.25,11.12,2.86,19.09-1.9,22.08-13.05q5.56-20.79,11.17-41.55a21.66,21.66,0,0,1,1.19-3.54,7.17,7.17,0,0,1,8.95-4.15,7.07,7.07,0,0,1,5.2,8,59.92,59.92,0,0,1-1.77,7.64c-3.09,11.57-6.49,23.06-9.27,34.69-3.8,15.88-12.83,25.85-29.52,27.94a11.78,11.78,0,0,0-1.79.53Z"/>
<path fill="#e7e8ec" d="M142.65,110.75a31,31,0,0,1-31.31-31.32,31.41,31.41,0,1,1,62.81.2C174.17,97,160.25,110.76,142.65,110.75Zm.11-15a16.36,16.36,0,0,0,16.32-16c0-9.2-7-16.18-16.37-16.17a15.89,15.89,0,0,0-16.3,16.23A16.21,16.21,0,0,0,142.76,95.76Z"/></svg>